<svg width="16" height="16" viewBox="0 0 16 16" fill="none" xmlns="http://www.w3.org/2000/svg">
<path d="M2.4547 8.68604C2.41101 8.37279 2.121 8.15389 1.8077 8.19725C1.49451 8.24089 1.27573 8.5303 1.31891 8.8435C1.5231 10.3127 2.20515 11.6742 3.25915 12.718C4.31316 13.7618 5.68112 14.4303 7.1523 14.6202C8.62333 14.8099 10.1164 14.5107 11.4007 13.7687C12.252 13.2768 12.9796 12.6072 13.5401 11.8135V13.3501C13.5403 13.6665 13.7968 13.9232 14.1133 13.9232C14.4296 13.923 14.6863 13.6664 14.6864 13.3501V10.2935C14.6862 9.97717 14.4295 9.72049 14.1133 9.72034H11.0566C10.7402 9.72034 10.4837 9.97708 10.4835 10.2935C10.4837 10.6099 10.7402 10.8666 11.0566 10.8666H12.7939C12.3084 11.6517 11.634 12.3098 10.8268 12.7762C9.76018 13.3923 8.52023 13.6412 7.29856 13.4836C6.0769 13.326 4.94113 12.7705 4.06584 11.9038C3.19049 11.037 2.62428 9.90624 2.4547 8.68604Z" fill="#FBFBFB"/>
<path d="M8.84776 1.38181C7.37677 1.19204 5.88371 1.49067 4.5994 2.23253C3.74803 2.72438 3.02053 3.39414 2.45992 4.18769V2.65192C2.45974 2.33564 2.20309 2.07895 1.88681 2.0788C1.57039 2.0788 1.31387 2.33554 1.31369 2.65192V5.70853C1.31381 6.02495 1.57036 6.28164 1.88681 6.28164H4.94342C5.25974 6.28149 5.51641 6.02486 5.51653 5.70853C5.51636 5.39225 5.2597 5.13557 4.94342 5.13541H3.20542C3.69103 4.35002 4.36576 3.69154 5.17326 3.22503C6.23984 2.60906 7.47994 2.36072 8.7015 2.51834C9.92314 2.67607 11.059 3.2314 11.9342 4.09814C12.8094 4.96485 13.3757 6.0952 13.5454 7.31519C13.5889 7.6287 13.8788 7.84755 14.1924 7.80398C14.5056 7.76015 14.7247 7.47104 14.6811 7.15773C14.4769 5.68859 13.7949 4.32694 12.7409 3.28324C11.687 2.23962 10.3188 1.57167 8.84776 1.38181Z" fill="#FBFBFB"/>
</svg>
