<svg width="414" height="62" viewBox="0 0 414 62" fill="none" xmlns="http://www.w3.org/2000/svg">
<path d="M0.617676 24.6818L5.76435 0.5H14.0888C15.7008 0.5 17.1861 0.776363 18.5447 1.32909C19.9263 1.85879 21.1238 2.61879 22.137 3.60909C23.1732 4.57636 23.9677 5.71636 24.5204 7.02909C25.096 8.34182 25.3839 9.7697 25.3839 11.3127C25.3839 13.1321 25.0155 14.8479 24.2786 16.46C23.5417 18.0721 22.5285 19.5 21.2389 20.7436C19.9724 21.9642 18.4986 22.9315 16.8176 23.6455C15.1596 24.3364 13.3865 24.6818 11.4982 24.6818H0.617676ZM7.52597 19.4309H11.9127C12.949 19.4309 13.9046 19.2352 14.7797 18.8436C15.6777 18.4521 16.4607 17.9109 17.1285 17.22C17.8193 16.5061 18.349 15.6885 18.7174 14.7673C19.1089 13.8461 19.3046 12.8558 19.3046 11.7964C19.3046 10.6218 19.0398 9.58545 18.5101 8.68727C18.0035 7.76606 17.3012 7.05212 16.4031 6.54545C15.5281 6.01576 14.5149 5.75091 13.3635 5.75091H10.462L7.52597 19.4309ZM25.8491 24.6818L30.9958 0.5H42.2563C43.7761 0.5 45.1002 0.799394 46.2286 1.39818C47.38 1.99697 48.278 2.82606 48.9228 3.88545C49.5676 4.92182 49.89 6.13091 49.89 7.51273C49.89 8.73333 49.6252 9.88485 49.0955 10.9673C48.5889 12.0267 47.875 12.9479 46.9539 13.7309C46.0328 14.4909 44.9621 15.0552 43.7416 15.4236L47.403 24.6818H41.2546L38.1459 15.8727H33.5173L31.6521 24.6818H25.8491ZM34.5536 11.0364H40.5983C41.2431 11.0364 41.8188 10.9097 42.3254 10.6564C42.832 10.38 43.2235 10.023 43.4998 9.58546C43.7992 9.12485 43.9488 8.61818 43.9488 8.06545C43.9488 7.30546 43.6955 6.70667 43.1889 6.26909C42.7054 5.80849 42.0491 5.57818 41.2201 5.57818H35.728L34.5536 11.0364ZM47.4194 24.6818L62.1686 0.5H68.8351L73.3946 24.6818H67.3844L66.4172 18.8436H57.1601L53.7751 24.6818H47.4194ZM59.8889 14.1109H65.6573L64.3793 6.37273L59.8889 14.1109ZM75.1314 24.6818L80.2781 0.5H99.1032L97.9978 5.64727H84.9757L84.0085 10.1727H92.6785L91.6422 15.1473H82.9723L80.9344 24.6818H75.1314ZM103.65 24.6818L107.691 5.75091H99.9192L101.059 0.5H122.371L121.231 5.75091H113.529L109.487 24.6818H103.65ZM119.826 24.6818L124.973 0.5H143.66L142.554 5.64727H129.67L128.738 10H137.235L136.199 14.9745H127.702L126.734 19.5345H139.757L138.651 24.6818H119.826ZM140.283 24.6818L155.033 0.5H161.699L166.258 24.6818H160.248L159.281 18.8436H150.024L146.639 24.6818H140.283ZM152.753 14.1109H158.521L157.243 6.37273L152.753 14.1109Z" stroke="white" stroke-opacity="0.08"/>
<path d="M194.618 24.6818L199.764 0.5H208.089C209.701 0.5 211.186 0.776363 212.545 1.32909C213.926 1.85879 215.124 2.61879 216.137 3.60909C217.173 4.57636 217.968 5.71636 218.52 7.02909C219.096 8.34182 219.384 9.7697 219.384 11.3127C219.384 13.1321 219.015 14.8479 218.279 16.46C217.542 18.0721 216.528 19.5 215.239 20.7436C213.972 21.9642 212.499 22.9315 210.818 23.6455C209.16 24.3364 207.386 24.6818 205.498 24.6818H194.618ZM201.526 19.4309H205.913C206.949 19.4309 207.905 19.2352 208.78 18.8436C209.678 18.4521 210.461 17.9109 211.128 17.22C211.819 16.5061 212.349 15.6885 212.717 14.7673C213.109 13.8461 213.305 12.8558 213.305 11.7964C213.305 10.6218 213.04 9.58545 212.51 8.68727C212.004 7.76606 211.301 7.05212 210.403 6.54545C209.528 6.01576 208.515 5.75091 207.363 5.75091H204.462L201.526 19.4309ZM219.849 24.6818L224.996 0.5H236.256C237.776 0.5 239.1 0.799394 240.229 1.39818C241.38 1.99697 242.278 2.82606 242.923 3.88545C243.568 4.92182 243.89 6.13091 243.89 7.51273C243.89 8.73333 243.625 9.88485 243.096 10.9673C242.589 12.0267 241.875 12.9479 240.954 13.7309C240.033 14.4909 238.962 15.0552 237.742 15.4236L241.403 24.6818H235.255L232.146 15.8727H227.517L225.652 24.6818H219.849ZM228.554 11.0364H234.598C235.243 11.0364 235.819 10.9097 236.325 10.6564C236.832 10.38 237.223 10.023 237.5 9.58546C237.799 9.12485 237.949 8.61818 237.949 8.06545C237.949 7.30546 237.696 6.70667 237.189 6.26909C236.705 5.80849 236.049 5.57818 235.22 5.57818H229.728L228.554 11.0364ZM241.419 24.6818L256.169 0.5H262.835L267.395 24.6818H261.384L260.417 18.8436H251.16L247.775 24.6818H241.419ZM253.889 14.1109H259.657L258.379 6.37273L253.889 14.1109ZM269.131 24.6818L274.278 0.5H293.103L291.998 5.64727H278.976L278.009 10.1727H286.678L285.642 15.1473H276.972L274.934 24.6818H269.131ZM297.65 24.6818L301.691 5.75091H293.919L295.059 0.5H316.371L315.231 5.75091H307.529L303.487 24.6818H297.65ZM313.826 24.6818L318.973 0.5H337.66L336.554 5.64727H323.67L322.738 10H331.235L330.199 14.9745H321.702L320.734 19.5345H333.757L332.651 24.6818H313.826ZM334.283 24.6818L349.033 0.5H355.699L360.258 24.6818H354.248L353.281 18.8436H344.024L340.639 24.6818H334.283ZM346.753 14.1109H352.521L351.243 6.37273L346.753 14.1109Z" stroke="white" stroke-opacity="0.08"/>
<path d="M52.6177 60.6818L57.7644 36.5H66.0888C67.7008 36.5 69.1861 36.7764 70.5447 37.3291C71.9263 37.8588 73.1238 38.6188 74.137 39.6091C75.1732 40.5764 75.9677 41.7164 76.5204 43.0291C77.096 44.3418 77.3839 45.7697 77.3839 47.3127C77.3839 49.1321 77.0154 50.8479 76.2786 52.46C75.5417 54.0721 74.5285 55.5 73.2389 56.7436C71.9724 57.9642 70.4986 58.9315 68.8176 59.6455C67.1596 60.3364 65.3865 60.6818 63.4982 60.6818H52.6177ZM59.526 55.4309H63.9127C64.949 55.4309 65.9046 55.2352 66.7797 54.8436C67.6777 54.4521 68.4607 53.9109 69.1285 53.22C69.8193 52.5061 70.3489 51.6885 70.7174 50.7673C71.1089 49.8461 71.3046 48.8558 71.3046 47.7964C71.3046 46.6218 71.0398 45.5855 70.5101 44.6873C70.0035 43.7661 69.3012 43.0521 68.4031 42.5455C67.5281 42.0158 66.5149 41.7509 65.3635 41.7509H62.462L59.526 55.4309ZM77.8491 60.6818L82.9958 36.5H94.2563C95.7761 36.5 97.1002 36.7994 98.2286 37.3982C99.38 37.997 100.278 38.8261 100.923 39.8855C101.568 40.9218 101.89 42.1309 101.89 43.5127C101.89 44.7333 101.625 45.8848 101.096 46.9673C100.589 48.0267 99.8751 48.9479 98.9539 49.7309C98.0328 50.4909 96.9621 51.0552 95.7416 51.4236L99.403 60.6818H93.2546L90.1459 51.8727H85.5173L83.6521 60.6818H77.8491ZM86.5536 47.0364H92.5983C93.2431 47.0364 93.8188 46.9097 94.3254 46.6564C94.832 46.38 95.2235 46.023 95.4998 45.5855C95.7992 45.1249 95.9488 44.6182 95.9488 44.0655C95.9488 43.3055 95.6955 42.7067 95.1889 42.2691C94.7054 41.8085 94.0491 41.5782 93.2201 41.5782H87.728L86.5536 47.0364ZM99.4194 60.6818L114.169 36.5H120.835L125.395 60.6818H119.384L118.417 54.8436H109.16L105.775 60.6818H99.4194ZM111.889 50.1109H117.657L116.379 42.3727L111.889 50.1109ZM127.131 60.6818L132.278 36.5H151.103L149.998 41.6473H136.976L136.009 46.1727H144.678L143.642 51.1473H134.972L132.934 60.6818H127.131ZM155.65 60.6818L159.691 41.7509H151.919L153.059 36.5H174.371L173.231 41.7509H165.529L161.487 60.6818H155.65ZM171.826 60.6818L176.973 36.5H195.66L194.554 41.6473H181.67L180.738 46H189.235L188.199 50.9745H179.702L178.734 55.5345H191.757L190.651 60.6818H171.826ZM192.283 60.6818L207.033 36.5H213.699L218.258 60.6818H212.248L211.281 54.8436H202.024L198.639 60.6818H192.283ZM204.753 50.1109H210.521L209.243 42.3727L204.753 50.1109Z" stroke="white" stroke-opacity="0.08"/>
<path d="M247.618 60.6818L252.764 36.5H261.089C262.701 36.5 264.186 36.7764 265.545 37.3291C266.926 37.8588 268.124 38.6188 269.137 39.6091C270.173 40.5764 270.968 41.7164 271.52 43.0291C272.096 44.3418 272.384 45.7697 272.384 47.3127C272.384 49.1321 272.015 50.8479 271.279 52.46C270.542 54.0721 269.528 55.5 268.239 56.7436C266.972 57.9642 265.499 58.9315 263.818 59.6455C262.16 60.3364 260.386 60.6818 258.498 60.6818H247.618ZM254.526 55.4309H258.913C259.949 55.4309 260.905 55.2352 261.78 54.8436C262.678 54.4521 263.461 53.9109 264.128 53.22C264.819 52.5061 265.349 51.6885 265.717 50.7673C266.109 49.8461 266.305 48.8558 266.305 47.7964C266.305 46.6218 266.04 45.5855 265.51 44.6873C265.004 43.7661 264.301 43.0521 263.403 42.5455C262.528 42.0158 261.515 41.7509 260.363 41.7509H257.462L254.526 55.4309ZM272.849 60.6818L277.996 36.5H289.256C290.776 36.5 292.1 36.7994 293.229 37.3982C294.38 37.997 295.278 38.8261 295.923 39.8855C296.568 40.9218 296.89 42.1309 296.89 43.5127C296.89 44.7333 296.625 45.8848 296.096 46.9673C295.589 48.0267 294.875 48.9479 293.954 49.7309C293.033 50.4909 291.962 51.0552 290.742 51.4236L294.403 60.6818H288.255L285.146 51.8727H280.517L278.652 60.6818H272.849ZM281.554 47.0364H287.598C288.243 47.0364 288.819 46.9097 289.325 46.6564C289.832 46.38 290.223 46.023 290.5 45.5855C290.799 45.1249 290.949 44.6182 290.949 44.0655C290.949 43.3055 290.696 42.7067 290.189 42.2691C289.705 41.8085 289.049 41.5782 288.22 41.5782H282.728L281.554 47.0364ZM294.419 60.6818L309.169 36.5H315.835L320.395 60.6818H314.384L313.417 54.8436H304.16L300.775 60.6818H294.419ZM306.889 50.1109H312.657L311.379 42.3727L306.889 50.1109ZM322.131 60.6818L327.278 36.5H346.103L344.998 41.6473H331.976L331.009 46.1727H339.678L338.642 51.1473H329.972L327.934 60.6818H322.131ZM350.65 60.6818L354.691 41.7509H346.919L348.059 36.5H369.371L368.231 41.7509H360.529L356.487 60.6818H350.65ZM366.826 60.6818L371.973 36.5H390.66L389.554 41.6473H376.67L375.738 46H384.235L383.199 50.9745H374.702L373.734 55.5345H386.757L385.651 60.6818H366.826ZM387.283 60.6818L402.033 36.5H408.699L413.258 60.6818H407.248L406.281 54.8436H397.024L393.639 60.6818H387.283ZM399.753 50.1109H405.521L404.243 42.3727L399.753 50.1109Z" stroke="white" stroke-opacity="0.08"/>
</svg>
